<?xml version="1.0" encoding="UTF-8" standalone="no"?>
<!DOCTYPE svg PUBLIC "-//W3C//DTD SVG 1.1//EN" "http://www.w3.org/Graphics/SVG/1.1/DTD/svg11.dtd">
<!-- Created with Vectornator (http://vectornator.io/) -->
<svg height="100%" stroke-miterlimit="10" style="fill-rule:nonzero;clip-rule:evenodd;stroke-linecap:round;stroke-linejoin:round;" version="1.1" viewBox="0 0 288 288" width="100%" xml:space="preserve" xmlns="http://www.w3.org/2000/svg" xmlns:vectornator="http://vectornator.io" xmlns:xlink="http://www.w3.org/1999/xlink">
<defs/>
<g id="resume" vectornator:layerName="resume">
<path d="M20 0L268 0C279.046 0 288 8.95431 288 20L288 268C288 279.046 279.046 288 268 288L20 288C8.95431 288 1.35271e-15 279.046 0 268L0 20C0 8.95431 8.95431 2.02906e-15 20 0Z" fill="#009acd" fill-opacity="0" fill-rule="nonzero" opacity="0.996806" stroke="none" vectornator:layerName="rect 1"/>
<g opacity="1" vectornator:layerName="Group 2">
<path d="M78.5 29C69.1112 29 61.5 36.6112 61.5 46L61.5 242C61.5 251.389 69.1112 259 78.5 259L209.5 259C218.889 259 226.5 251.389 226.5 242L226.5 46C226.5 36.6112 218.889 29 209.5 29L78.5 29ZM106.656 51.0312C116.086 51.0313 123.781 58.4805 123.781 67.6875C123.781 73.9855 120.138 79.4316 114.844 82.2812C122.708 84.5955 129.164 90.1932 132.688 97.5312C125.511 102.911 116.464 106.062 106.688 106.062C96.9109 106.063 87.8539 102.911 80.625 97.5312C84.1441 90.2047 90.6226 84.6333 98.5 82.3125C93.1965 79.4686 89.5625 73.9998 89.5625 67.6875C89.5625 58.4811 97.2203 51.0312 106.656 51.0312ZM144.188 53.75L201.688 53.75C207.21 53.75 211.688 58.2272 211.688 63.75C211.687 69.2728 207.21 73.75 201.688 73.75L144.188 73.75C138.665 73.75 134.188 69.2728 134.188 63.75C134.187 58.2271 138.665 53.75 144.188 53.75ZM153.5 82.0625L201.688 82.0625C207.21 82.0625 211.688 86.5397 211.688 92.0625C211.687 97.5853 207.21 102.062 201.688 102.062L153.5 102.062C147.977 102.062 143.5 97.5853 143.5 92.0625C143.5 86.5396 147.977 82.0625 153.5 82.0625ZM86.7188 117.406L201.688 117.406C207.21 117.406 211.688 121.883 211.688 127.406C211.687 132.929 207.21 137.406 201.688 137.406L86.7188 137.406C81.1959 137.406 76.7188 132.929 76.7188 127.406C76.7188 121.883 81.1959 117.406 86.7188 117.406ZM86.625 152.719C92.1478 152.719 96.625 157.196 96.625 162.719C96.625 168.242 92.1478 172.719 86.625 172.719C81.1022 172.719 76.625 168.242 76.625 162.719C76.625 157.196 81.1022 152.719 86.625 152.719ZM113.719 152.719L201.688 152.719C207.21 152.719 211.688 157.196 211.688 162.719C211.687 168.242 207.21 172.719 201.688 172.719L113.719 172.719C108.196 172.719 103.719 168.242 103.719 162.719C103.719 157.196 108.196 152.719 113.719 152.719ZM86.625 183.062C92.1478 183.062 96.625 187.54 96.625 193.062C96.625 198.585 92.1478 203.062 86.625 203.062C81.1022 203.062 76.625 198.585 76.625 193.062C76.625 187.54 81.1022 183.062 86.625 183.062ZM113.719 183.062L201.688 183.062C207.21 183.062 211.688 187.54 211.688 193.062C211.687 198.585 207.21 203.062 201.688 203.062L113.719 203.062C108.196 203.062 103.719 198.585 103.719 193.062C103.719 187.54 108.196 183.062 113.719 183.062ZM86.625 213.375C92.1478 213.375 96.625 217.852 96.625 223.375C96.625 228.898 92.1478 233.375 86.625 233.375C81.1022 233.375 76.625 228.898 76.625 223.375C76.625 217.852 81.1022 213.375 86.625 213.375ZM113.719 213.375L201.688 213.375C207.21 213.375 211.688 217.852 211.688 223.375C211.687 228.898 207.21 233.375 201.688 233.375L113.719 233.375C108.196 233.375 103.719 228.898 103.719 223.375C103.719 217.852 108.196 213.375 113.719 213.375Z" fill="#ffffff" fill-rule="nonzero" opacity="1" stroke="none" vectornator:layerName="Curve 1"/>
</g>
<g opacity="1" vectornator:layerName="Group 3">
<g opacity="1" vectornator:layerName="Group 1">
<path d="M106.656 51.0312C97.2203 51.0312 89.5625 58.4811 89.5625 67.6875C89.5625 73.9998 93.1965 79.4686 98.5 82.3125C90.6226 84.6333 84.1441 90.2047 80.625 97.5312C87.8539 102.911 96.9109 106.063 106.688 106.062C116.464 106.062 125.511 102.911 132.688 97.5312C129.164 90.1932 122.708 84.5955 114.844 82.2812C120.138 79.4316 123.781 73.9855 123.781 67.6875C123.781 58.4805 116.086 51.0312 106.656 51.0312Z" fill="#000000" fill-opacity="0.2" fill-rule="nonzero" opacity="0.998062" stroke="none" vectornator:layerName="Curve 1"/>
</g>
<path d="M86.7123 127.397L201.687 127.397" fill="none" opacity="1" stroke="#000000" stroke-linecap="round" stroke-linejoin="round" stroke-opacity="0.1" stroke-width="20" vectornator:layerName="Line 6"/>
<path d="M113.706 162.724L201.687 162.724" fill="none" opacity="1" stroke="#ffffff" stroke-linecap="round" stroke-linejoin="round" stroke-opacity="0.4" stroke-width="20" vectornator:layerName="Line 18"/>
<path d="M113.706 193.051L201.687 193.051" fill="none" opacity="1" stroke="#ffffff" stroke-linecap="round" stroke-linejoin="round" stroke-opacity="0.4" stroke-width="20" vectornator:layerName="Line 18"/>
<path d="M113.706 223.378L201.687 223.378" fill="none" opacity="1" stroke="#ffffff" stroke-linecap="round" stroke-linejoin="round" stroke-opacity="0.4" stroke-width="20" vectornator:layerName="Line 16"/>
<path d="M144.2 63.7429L201.687 63.7429" fill="none" opacity="1" stroke="#000000" stroke-linecap="round" stroke-linejoin="round" stroke-opacity="0.1" stroke-width="20" vectornator:layerName="Line 18"/>
<path d="M153.487 92.07L201.687 92.07" fill="none" opacity="1" stroke="#ffffff" stroke-linecap="round" stroke-linejoin="round" stroke-opacity="0.4" stroke-width="20" vectornator:layerName="Line 17"/>
</g>
</g>
</svg>
