<?xml version="1.0" encoding="UTF-8" standalone="no"?>
<!DOCTYPE svg PUBLIC "-//W3C//DTD SVG 1.1//EN" "http://www.w3.org/Graphics/SVG/1.1/DTD/svg11.dtd">
<!-- Created with Vectornator (http://vectornator.io/) -->
<svg height="100%" stroke-miterlimit="10" style="fill-rule:nonzero;clip-rule:evenodd;stroke-linecap:round;stroke-linejoin:round;" version="1.1" viewBox="0 0 288 288" width="100%" xml:space="preserve" xmlns="http://www.w3.org/2000/svg" xmlns:vectornator="http://vectornator.io" xmlns:xlink="http://www.w3.org/1999/xlink">
<defs/>
<g id="site-code" vectornator:layerName="site-code">
<path d="M20 0L268 0C279.046 0 288 8.95431 288 20L288 268C288 279.046 279.046 288 268 288L20 288C8.95431 288 1.35271e-15 279.046 0 268L0 20C0 8.95431 8.95431 2.02906e-15 20 0Z" fill="#009acd" fill-opacity="0" fill-rule="nonzero" opacity="0.996806" stroke="none" vectornator:layerName="rect"/>
<g opacity="1" vectornator:layerName="Web Programing">
<path d="M245 61.5C252.732 61.5 259 67.768 259 75.5L259 121.365C259 121.365 201.5 109.853 144 109.853C86.5 109.853 29 121.365 29 121.365L29 75.5C29 67.768 35.268 61.5 43 61.5L245 61.5Z" fill="#ffffff" fill-opacity="0.55" fill-rule="nonzero" opacity="1" stroke="none" vectornator:layerName="path 1"/>
<path d="M46 104.531C36.6112 104.531 29 112.142 29 121.531L29 209.5C29 218.889 36.6112 226.5 46 226.5L242 226.5C251.389 226.5 259 218.889 259 209.5L259 121.531C259 112.142 251.389 104.531 242 104.531L46 104.531ZM156.156 119.5C157.099 119.423 158.073 119.521 159.031 119.844C162.848 121.128 164.867 125.262 163.625 129.062C157.261 148.432 144.521 187.162 138.156 206.531C137.196 209.519 134.441 211.591 131.281 211.594C128.927 211.6 126.732 210.444 125.375 208.531C124.019 206.62 123.667 204.158 124.406 201.938C124.405 201.941 124.376 201.965 124.375 201.969C130.737 182.606 143.477 143.877 149.844 124.5C150.778 121.642 153.329 119.732 156.156 119.5ZM109.812 128.156C111.897 128.422 113.865 129.581 115.062 131.5C117.178 134.89 116.193 139.36 112.812 141.531C103.533 147.528 86.5671 158.5 75.6875 165.531C86.5671 172.562 103.533 183.534 112.812 189.531C112.818 189.535 112.839 189.528 112.844 189.531C115.528 191.29 116.717 194.613 115.844 197.688C114.97 200.765 112.191 202.928 108.969 202.969C108.953 202.969 108.953 202.969 108.938 202.969C107.555 202.965 106.19 202.562 105.031 201.812C93.3725 194.286 70.0519 179.226 58.375 171.688C56.2752 170.339 55 167.986 55 165.5C55 163.015 56.2749 160.692 58.375 159.344C70.0484 151.808 93.3689 136.748 105.031 129.219C105.881 128.673 106.786 128.343 107.719 128.188C108.418 128.071 109.118 128.068 109.812 128.156ZM178.188 128.156C178.882 128.067 179.582 128.071 180.281 128.188C181.214 128.343 182.119 128.673 182.969 129.219C194.631 136.748 217.952 151.808 229.625 159.344C231.725 160.692 233 163.014 233 165.5C233 167.97 231.733 170.304 229.656 171.656C229.654 171.658 229.627 171.686 229.625 171.688C217.948 179.226 194.628 194.286 182.969 201.812C181.81 202.562 180.445 202.965 179.062 202.969C175.827 202.96 173.018 200.805 172.125 197.719C171.234 194.638 172.429 191.298 175.125 189.531C184.416 183.533 201.422 172.562 212.312 165.531C201.433 158.5 184.467 147.528 175.188 141.531C171.811 139.363 170.819 134.894 172.938 131.5C174.135 129.582 176.103 128.423 178.188 128.156Z" fill="#ffffff" fill-rule="nonzero" opacity="1" stroke="none" vectornator:layerName="Curve 1"/>
</g>
</g>
</svg>
