<?xml version="1.0" encoding="UTF-8" standalone="no"?>
<!DOCTYPE svg PUBLIC "-//W3C//DTD SVG 1.1//EN" "http://www.w3.org/Graphics/SVG/1.1/DTD/svg11.dtd">
<!-- Created with Vectornator (http://vectornator.io/) -->
<svg height="100%" stroke-miterlimit="10" style="fill-rule:nonzero;clip-rule:evenodd;stroke-linecap:round;stroke-linejoin:round;" version="1.1" viewBox="14.8159 22.7556 120.368 79.4884" width="100%" xml:space="preserve" xmlns="http://www.w3.org/2000/svg" xmlns:vectornator="http://vectornator.io" xmlns:xlink="http://www.w3.org/1999/xlink">
<defs/>
<g id="Layer-3" vectornator:layerName="Layer 3">
<g opacity="1" vectornator:layerName="Group 6">
<path d="M44.0244 66.5144C43.3066 66.822 42.5889 67.1604 41.8711 67.5295C37.4004 69.9495 34.2217 72.7488 32.335 75.9275C31.7197 76.9939 31.4121 78.0398 31.4121 79.0652C31.4121 79.906 31.6582 80.7161 32.1504 81.4954C32.4375 81.926 32.7964 82.2747 33.2271 82.5413C33.4937 82.7258 33.7808 82.8181 34.0884 82.8181C34.273 82.8181 34.4678 82.7874 34.6729 82.7258C35.4932 82.3977 36.2827 81.8542 37.0415 81.0955C40.0356 78.4089 42.0967 75.1379 43.2246 71.2825C43.6758 69.7854 43.9424 68.196 44.0244 66.5144ZM44.0552 65.53L44.0552 65.3147C44.0552 63.3459 43.5425 61.5925 42.5171 60.0544C41.3481 58.6804 39.8818 57.9934 38.1182 57.9934C35.7393 57.9934 33.3501 58.7214 30.9507 60.1775C27.5874 62.2488 24.8599 64.9661 22.7681 68.3293C20.4302 71.7542 18.8408 75.5481 18 79.7112C17.7744 80.7981 17.6616 81.8748 17.6616 82.9412C17.6616 85.9148 18.5435 88.7551 20.3071 91.4622C22.2144 93.9846 24.4702 95.3381 27.0747 95.5227C27.4849 95.5637 27.8848 95.5842 28.2744 95.5842C30.4893 95.5842 32.8323 95.0562 35.3035 94C37.7747 92.9438 40.0869 91.6775 42.2402 90.2009C52.002 83.4744 59.918 73.969 65.9883 61.6848C63.2197 62.3821 60.4204 62.905 57.5903 63.2537C54.8833 63.6023 52.207 64.074 49.5615 64.6687C48.4541 64.9353 47.3569 65.2532 46.27 65.6223C46.3521 66.2786 46.3931 66.9553 46.3931 67.6526C46.3931 71.1594 45.4189 74.4509 43.4707 77.5271C42.5273 79.1677 41.2251 80.7161 39.564 82.1721C38.1694 83.4026 36.6519 84.0178 35.0112 84.0178C34.6831 84.0178 34.355 83.9973 34.0269 83.9563C32.3042 83.5667 31.1353 82.5515 30.52 80.9109C30.3355 80.2546 30.2432 79.6189 30.2432 79.0037C30.2432 77.7527 30.6123 76.553 31.3506 75.4045C32.499 73.5999 33.9448 71.99 35.688 70.575C38.2925 68.4421 41.0815 66.7605 44.0552 65.53ZM70.2334 59.2854C77.5342 56.3118 83.9736 51.2771 89.5518 44.1814C89.5928 44.1404 89.6646 44.1199 89.7671 44.1199C89.8081 44.1199 89.8748 44.1301 89.967 44.1506C90.0593 44.1711 90.1619 44.2173 90.2747 44.2891C90.3875 44.3608 90.4439 44.4275 90.4439 44.489L90.4131 44.5505C89.4902 46.1091 88.4341 47.5652 87.2446 48.9187C82.3228 54.3328 76.4473 58.2292 69.6182 60.6082C65.8242 68.8318 60.8511 76.2659 54.6987 82.9104C51.6431 86.1301 48.2695 88.9705 44.5781 91.4314C40.8867 94.0974 36.8262 95.9329 32.3965 96.9377C31.3711 97.1428 30.356 97.2454 29.3511 97.2454C26.0493 97.2454 23.0347 96.1277 20.3071 93.8923C17.3745 91.0212 15.8774 87.5042 15.8159 83.3411C15.8159 79.0959 17.1694 74.7073 19.8765 70.175C21.9683 66.4836 24.7061 63.3665 28.0898 60.8235C29.6484 59.675 31.3711 58.7625 33.2578 58.0857C34.6523 57.5935 36.0776 57.3474 37.5337 57.3474C40.2612 57.3474 42.4043 58.26 43.9629 60.0852C45.0498 61.3567 45.7676 62.9153 46.1162 64.761C47.0186 64.4739 47.9312 64.2175 48.854 63.9919C51.52 63.3767 54.2271 62.864 56.9751 62.4539C60.2153 62.0437 63.4146 61.3977 66.5728 60.5159C67.6802 58.1575 68.7363 55.6965 69.7412 53.1331C72.5098 45.9963 75.0015 38.7468 77.2163 31.3845C77.7085 29.8054 78.2109 28.2366 78.7236 26.678C77.2676 28.2776 75.6577 29.7131 73.894 30.9846C70.5718 33.3225 67.106 35.4246 63.4966 37.2908L59.8052 39.321C57.6929 40.49 55.7856 41.6692 54.0835 42.8586C52.2378 44.1301 50.7817 45.5964 49.7153 47.2576C49.1001 48.2419 48.7925 49.2981 48.7925 50.426C48.7925 51.2053 48.9463 52.0256 49.2539 52.887L49.2847 52.9792C49.2847 53.0203 49.2437 53.051 49.1616 53.0715C49.0796 53.0715 48.9822 53.051 48.8694 53.01C48.7566 52.969 48.6797 52.9177 48.6387 52.8562C48.3106 51.9949 48.1465 51.1541 48.1465 50.3337C48.1465 48.1394 49.1821 46.0784 51.2534 44.1506C53.5503 42.1614 56.0522 40.449 58.7593 39.0134C60.1128 38.2136 62.5635 36.8396 66.1113 34.8914C68.6748 33.4763 71.1255 31.887 73.4634 30.1233C75.8013 28.3596 77.8521 26.2986 79.6157 23.9402C79.6567 23.8992 79.6978 23.8684 79.7388 23.8479C79.8413 23.7864 79.9541 23.7556 80.0772 23.7556C80.3643 23.7556 80.6462 23.8479 80.9231 24.0325C81.2 24.217 81.3384 24.4119 81.3384 24.6169L80.9385 26.3704C80.5078 28.2571 80.0464 30.1438 79.5542 32.0305C77.2778 41.259 74.2017 50.2825 70.3257 59.1008C70.2847 59.1624 70.2539 59.2239 70.2334 59.2854Z" fill="#ffffff" fill-rule="nonzero" opacity="1" stroke="#ffffff" stroke-linecap="butt" stroke-linejoin="round" stroke-width="2" vectornator:layerName="path"/>
<path d="M102.561 70.9441C101.392 71.6003 100.274 72.3284 99.208 73.1282C95.1475 76.1633 91.4458 79.5779 88.103 83.3718C88.062 83.4333 88.0107 83.4846 87.9492 83.5256C86.124 85.4124 84.4731 87.4221 82.9966 89.5549C81.52 91.6877 80.71 94.0256 80.5664 96.5686C80.5664 96.9377 80.6074 97.3735 80.6894 97.876C80.7715 98.3784 80.9355 98.8245 81.1816 99.2141C81.4277 99.6038 81.7866 99.7986 82.2583 99.7986C83.1196 99.7371 84.0835 99.3269 85.1499 98.5681C87.1392 97.0916 88.9028 95.3894 90.4409 93.4617C93.5991 89.5037 96.2036 85.2073 98.2544 80.5725C99.7104 77.4758 101.146 74.2664 102.561 70.9441ZM89.4258 58.8855C89.4463 58.865 89.477 58.8445 89.5181 58.824C92.6147 57.1013 95.6243 55.2556 98.5466 53.2869C101.469 51.3181 104.109 48.9905 106.468 46.304C108.58 43.925 109.636 41.6282 109.636 39.4133C109.636 37.8547 109.206 36.5833 108.344 35.5989C107.647 34.7786 106.806 34.3684 105.822 34.3684C104.407 34.3684 103.084 34.7683 101.854 35.5681C96.46 38.8699 92.6045 43.4739 90.2871 49.3801C89.4463 51.554 89.0259 53.738 89.0259 55.9324C89.0259 56.9167 89.1592 57.9011 89.4258 58.8855ZM118.742 70.2673C116.917 71.99 115.45 74.0305 114.343 76.3889C113.912 77.1887 113.697 77.8245 113.697 78.2961C113.758 78.9319 114.015 79.2498 114.466 79.2498C114.63 79.2498 114.814 79.2087 115.02 79.1267C115.594 78.8396 116.096 78.4397 116.527 77.927C118.126 75.9377 118.926 73.8972 118.926 71.8054C118.926 71.2312 118.865 70.7185 118.742 70.2673ZM119.572 68.5754C123.653 65.5403 128.247 64.0227 133.354 64.0227C133.579 64.0227 133.769 64.074 133.923 64.1765C134.076 64.2791 134.164 64.3816 134.184 64.4841C134.184 64.5867 134.082 64.6379 133.876 64.6379L133.323 64.6379C128.339 64.6379 123.889 66.1658 119.972 69.2214C120.198 69.5906 120.403 70.0212 120.587 70.5134C120.751 71.1082 120.833 71.7439 120.833 72.4207C120.833 75.2507 119.921 77.5579 118.096 79.342C117.378 80.0393 116.558 80.3879 115.635 80.3879C115.102 80.3879 114.538 80.2751 113.943 80.0496C112.897 79.6599 112.354 78.9832 112.312 78.0193C112.374 77.1375 112.928 75.948 113.974 74.4509C115.245 72.5642 116.742 70.8928 118.465 69.4368C118.157 68.76 117.675 68.2166 117.019 67.8064C116.383 67.4578 115.686 67.2834 114.927 67.2834C114.168 67.2834 113.44 67.3347 112.743 67.4373C110.815 67.7449 108.959 68.2166 107.175 68.8523C106.56 70.3289 105.935 71.8054 105.299 73.282C102.961 79.1882 100.162 84.8586 96.9009 90.2932C94.5015 94.1897 91.5996 97.3171 88.1953 99.6755C86.6982 100.721 85.1807 101.244 83.6426 101.244C82.6377 101.244 81.6533 100.978 80.6894 100.445C79.582 99.8088 79.0283 98.7219 79.0283 97.1838C79.0283 93.2258 81.6738 88.4885 86.9648 82.9719C91.4766 77.968 95.8037 74.1023 99.9463 71.3748C101.013 70.6775 102.079 70.052 103.146 69.4983C104.15 67.0989 105.135 64.6379 106.099 62.1155C104.253 63.6125 102.182 64.6379 99.8848 65.1917C98.9209 65.4172 97.9673 65.53 97.0239 65.53C95.1372 65.53 93.2607 65.0891 91.3945 64.2073C89.8154 63.3459 88.5747 62.2385 87.6724 60.885C86.1753 61.7668 84.6885 62.6794 83.2119 63.6228C79.582 66.0017 76.2187 68.6882 73.1221 71.6824C69.4922 75.0251 66.4058 78.7986 63.8628 83.0027C62.7964 84.7458 61.9556 86.6223 61.3403 88.6321C61.0327 89.719 60.8789 90.7957 60.8789 91.8621C60.8789 94.3845 61.5557 96.3225 62.9092 97.676C63.5654 98.3528 64.4165 98.6912 65.4624 98.6912L66.0161 98.6604C68.7847 98.1477 70.897 96.6917 72.353 94.2922C72.4145 94.2102 72.5068 94.1692 72.6299 94.1692C73.0195 94.1692 73.2144 94.3127 73.2144 94.5999C72.7017 95.6047 72.0249 96.4763 71.1841 97.2146C69.5024 98.6707 67.5747 99.3987 65.4009 99.3987L65.2163 99.3987C63.227 99.1526 61.771 98.1272 60.8481 96.3225C60.1099 94.9075 59.7407 93.4412 59.7407 91.9236C59.7407 91.6365 59.7817 90.9648 59.8638 89.9087C59.9458 88.8525 60.3662 87.4836 61.125 85.802C63.0527 81.6799 65.6162 77.9885 68.8154 74.7278C71.6865 71.6106 74.7832 68.7395 78.1055 66.1145C81.0176 63.9407 84.0527 61.9412 87.2109 60.116C86.3291 58.4958 85.8882 56.5579 85.8882 54.302C85.8882 52.6819 86.1445 51.0515 86.6572 49.4109C88.79 43.156 92.6558 38.2957 98.2544 34.8298C99.5464 34.071 100.951 33.5276 102.469 33.1995C103.022 33.0969 103.566 33.0457 104.099 33.0457C105.042 33.0457 105.976 33.22 106.898 33.5686C109.38 34.8196 110.641 36.8499 110.682 39.6594C110.621 42.2229 109.349 44.8171 106.868 47.4421C104.714 49.78 102.315 51.8411 99.6694 53.6252C96.6753 55.6555 93.5889 57.5525 90.4102 59.3162L89.6719 59.7468C89.7334 59.9519 89.8052 60.1467 89.8872 60.3313C90.4614 61.8284 91.6919 62.9563 93.5786 63.7151C94.727 64.0842 95.8447 64.2688 96.9316 64.2688C98.8389 64.2688 100.941 63.592 103.238 62.2385C104.591 61.4387 105.904 60.4749 107.175 59.3469L107.298 58.9778C108.631 55.2043 110.128 51.4924 111.79 47.842C111.913 47.6575 112.107 47.5652 112.374 47.5652C112.436 47.5652 112.564 47.5754 112.759 47.5959C112.953 47.6165 113.194 47.7292 113.481 47.9343C113.769 48.1394 113.912 48.365 113.912 48.6111C113.584 50.3748 113.164 52.1077 112.651 53.8098C111.133 58.4856 109.462 63.1101 107.637 67.6833C109.175 67.1912 110.744 66.8425 112.343 66.6375C112.876 66.5759 113.399 66.5452 113.912 66.5452C115.122 66.5452 116.383 66.7605 117.696 67.1912C118.414 67.4578 119.039 67.9192 119.572 68.5754Z" fill="#ffffff" fill-rule="nonzero" opacity="1" stroke="#ffffff" stroke-linecap="butt" stroke-linejoin="round" stroke-width="2" vectornator:layerName="path"/>
</g>
</g>
</svg>
